# xmcd CD database file
#
# Track frame offsets:
#	150
#	18215
#	37212
#	47302
#	62702
#	85322
#	103370
#	124462
#	136770
#	145945
#
# Disc length: 2093 seconds
#
# Revision: 4
# Processed by: cddbd v1.5.2PL0 Copyright (c) Steve Scherf et al.
# Submitted via: CDex 1.70beta2
#
DISCID=8c082b0a
DTITLE=Hank Williams Jnr - Montana Cafe
DYEAR=1986
DGENRE=Country
TTITLE0=Country State Of Mind
TTITLE1=Montana Cafe
TTITLE2=My Girl Don't Like My Cowboy Hat
TTITLE3=When Something is Good (Why Does It Change)
TTITLE4=St. Louis Blues
TTITLE5=You Can't Judge A Book (By Looking At The Cover)
TTITLE6=My Name Is Bocephus
TTITLE7=Loving Instructor
TTITLE8=Fat Friends
TTITLE9=Mind Your Own Business
EXTD=YEAR: 1986
EXTT0=
EXTT1=
EXTT2=
EXTT3=
EXTT4=
EXTT5=
EXTT6=
EXTT7=
EXTT8=
EXTT9=
PLAYORDER=
